Coordinates
version=1
nRows=7
nColumns=40
inDegrees=yes

Units are S.I. units (second, meters, Newtons, ...)
If the header above contains a line with 'inDegrees', this indicates whether rotational values are in degrees (yes) or radians (no).

endheader
time	pelvis_tilt	pelvis_list	pelvis_rotation	pelvis_tx	pelvis_ty	pelvis_tz	hip_flexion_r	hip_adduction_r	hip_rotation_r	knee_angle_r	knee_angle_r_beta	ankle_angle_r	subtalar_angle_r	mtp_angle_r	hip_flexion_l	hip_adduction_l	hip_rotation_l	knee_angle_l	knee_angle_l_beta	ankle_angle_l	subtalar_angle_l	mtp_angle_l	lumbar_extension	lumbar_bending	lumbar_rotation	arm_flex_r	arm_add_r	arm_rot_r	elbow_flex_r	pro_sup_r	wrist_flex_r	wrist_dev_r	arm_flex_l	arm_add_l	arm_rot_l	elbow_flex_l	pro_sup_l	wrist_flex_l	wrist_dev_l
      1.50000000	     -3.03853835	     -5.16132076	      2.47579814	     -0.22843613	      0.98991474	     -1.00647239	     17.52940160	     -6.73638864	      5.51157933	     87.69021310	      1.53048294	    -21.68873541	      0.00000000	      0.00000000	      5.09299664	     -1.34559322	     -0.36633425	      9.48329288	      0.16551468	     -4.31455005	      0.00000000	      0.00000000	     -4.02400478	     -1.54723189	      7.28366269	     55.51786539	     -9.66218613	     24.78959976	     85.96301978	     80.33924561	      0.00000000	      0.00000000	     56.55367657	    -12.67903951	     28.43879240	     82.72639753	     75.05985632	      0.00000000	      0.00000000
      1.50500000	     -3.02595316	     -5.16264137	      2.45770778	     -0.22872470	      0.98996826	     -1.00643102	     17.53475147	     -6.71404182	      5.52038336	     87.69429474	      1.53055418	    -21.66607627	      0.00000000	      0.00000000	      5.15789711	     -1.35751136	     -0.38866077	      9.60693560	      0.16767266	     -4.17680011	      0.00000000	      0.00000000	     -4.10140222	     -1.53648186	      7.32888804	     55.59362125	     -9.69188987	     24.84225986	     85.92657409	     80.45030820	      0.00000000	      0.00000000	     56.60201092	    -12.66452420	     28.46036621	     82.74338535	     74.94264530	      0.00000000	      0.00000000
      1.51000000	     -2.99665493	     -5.15008342	      2.42127694	     -0.22899952	      0.99003824	     -1.00640562	     17.51489672	     -6.74874217	      5.49828289	     87.68271433	      1.53035206	    -21.71857052	      0.00000000	      0.00000000	      5.19078096	     -1.35225699	     -0.40369243	      9.69467692	      0.16920403	     -4.24996155	      0.00000000	      0.00000000	     -4.19343398	     -1.49841641	      7.29698928	     55.75967245	     -9.62010701	     24.95873753	     85.81401383	     80.32958981	      0.00000000	      0.00000000	     56.58317111	    -12.75872849	     28.35606327	     82.78171616	     74.69350602	      0.00000000	      0.00000000
      1.51500000	     -3.19605430	     -5.30328072	      2.36772277	     -0.22950469	      0.98972436	     -1.00613235	     17.80531895	     -6.50404078	      5.54606079	     87.73166600	      1.53120643	    -21.93652824	      0.00000000	      0.00000000	      5.61306730	     -1.52876892	     -0.62600940	     10.04562578	      0.17532925	     -3.57326787	      0.00000000	      0.00000000	     -4.03586310	     -1.33775056	      7.32183378	     55.84932844	     -9.65658230	     25.24686183	     85.85530905	     77.66621547	      0.00000000	      0.00000000	     56.61995503	    -12.84173095	     28.56965471	     82.88062953	     72.89343892	      0.00000000	      0.00000000
      1.52000000	     -3.04314222	     -5.24794831	      2.37273067	     -0.22964629	      0.99007862	     -1.00617688	     17.56157320	     -6.60584307	      5.48096257	     87.66002234	      1.52995601	    -21.66326513	      0.00000000	      0.00000000	      5.50578383	     -1.49635020	     -0.49028110	     10.13866813	      0.17695314	     -4.25089998	      0.00000000	      0.00000000	     -4.27712370	     -1.41619134	      7.43325727	     55.84813327	     -9.76354231	     24.98010335	     85.88702680	     80.76001197	      0.00000000	      0.00000000	     56.72272661	    -12.63259463	     28.34317040	     82.64969267	     75.25958629	      0.00000000	      0.00000000
      1.52500000	     -3.08550959	     -5.27224698	      2.36627154	     -0.22998216	      0.99002701	     -1.00611946	     17.62233263	     -6.56573753	      5.46466958	     87.67043348	      1.53013772	    -21.65821993	      0.00000000	      0.00000000	      5.69882033	     -1.52821210	     -0.55170537	     10.36122661	      0.18083752	     -3.92132627	      0.00000000	      0.00000000	     -4.28974819	     -1.38407822	      7.47340266	     55.90993151	     -9.80885571	     25.02649537	     85.89810565	     80.56807673	      0.00000000	      0.00000000	     56.78413743	    -12.61211123	     28.38898394	     82.60719997	     75.05441595	      0.00000000	      0.00000000
      1.53000000	     -3.16872160	     -5.31120083	      2.34844258	     -0.23038167	      0.98993805	     -1.00598919	     17.72230152	     -6.53440871	      5.42610142	     87.65168119	      1.52981043	    -21.73124090	      0.00000000	      0.00000000	      5.97579534	     -1.58792251	     -0.62273757	     10.67673283	      0.18634414	     -3.85011498	      0.00000000	      0.00000000	     -4.27370919	     -1.35000631	      7.50336979	     55.94378500	     -9.83592408	     25.04814265	     85.93202040	     80.52895615	      0.00000000	      0.00000000	     56.84492331	    -12.61877123	     28.43082863	     82.59381198	     75.03713071	      0.00000000	      0.00000000
